<?xml version="1.0" encoding="UTF-8" standalone="no"?>
<svg
   width="128"
   height="128"
   viewBox="0 0 512 512"
   version="1.1"
   id="svg1"
   sodipodi:docname="favicon.svg"
   inkscape:version="1.4.2 (ebf0e940d0, 2025-05-08)"
   xmlns:inkscape="http://www.inkscape.org/namespaces/inkscape"
   xmlns:sodipodi="http://sodipodi.sourceforge.net/DTD/sodipodi-0.dtd"
   xmlns="http://www.w3.org/2000/svg"
   xmlns:svg="http://www.w3.org/2000/svg">
  <defs
     id="defs1" />
  <sodipodi:namedview
     id="namedview1"
     pagecolor="#ffffff"
     bordercolor="#000000"
     borderopacity="0.25"
     inkscape:showpageshadow="2"
     inkscape:pageopacity="0.0"
     inkscape:pagecheckerboard="0"
     inkscape:deskcolor="#d1d1d1"
     showguides="false"
     inkscape:zoom="4"
     inkscape:cx="60.875"
     inkscape:cy="69.625"
     inkscape:window-width="1920"
     inkscape:window-height="1011"
     inkscape:window-x="0"
     inkscape:window-y="0"
     inkscape:window-maximized="1"
     inkscape:current-layer="svg1" />
  <path
     style="fill:#42a5f5;fill-opacity:1"
     d="m 278.221,431.744 c -99.28,0.255 -206.34,18.738 -256.866,63.139 168.002,-26.61 356.801,-28.408 470.8,-4.967 1.102,-35.337 -101.418,-58.46 -213.934,-58.172 z"
     id="path3" />
  <path
     style="fill:#42a5f5;fill-opacity:1"
     d="m 180.178,353.9 c -60.89,-0.24 -114.034,19.49 -158.426,74.221 167.075,-48.84 292.003,-13.21 471.893,7.895 C 374.709,397.264 269.171,354.253 180.178,353.9 Z"
     id="path2" />
  <path
     style="fill:#ce93d8;fill-opacity:1"
     d="M 453.004,35.117 C 387.69,81.727 263.249,76.135 239.445,160.543 195.81687,113.66625 132.8646,92.400431 70.356298,75.724017 54.013076,71.363854 37.700204,67.317422 21.771,63.209 c 6.532,139.103 71.38,147.437 192.44,194.547 23.71,25.786 29.786,49.93 19.254,82.705 46.403,5.1 71.504,15.468 106.754,27.742 -0.708,-71.67 -25.14,-108.928 -75.518,-175.035 11.058,4.233 44.979,37.02 56.578,58.607 109.419,-42.421 147.64,-112.074 131.725,-216.658 z"
     id="path1" />
</svg>
